<svg width="20" height="22" viewBox="0 0 20 22" fill="none" xmlns="http://www.w3.org/2000/svg">
<path d="M19 6.26629V15.5603C19.0001 15.6674 18.9714 15.7726 18.9171 15.8649C18.8627 15.9572 18.7847 16.0333 18.691 16.0853L10.291 20.7513C10.202 20.8007 10.1018 20.8266 10 20.8266C9.89818 20.8266 9.79804 20.8007 9.709 20.7513L1.309 16.0853C1.21532 16.0333 1.13725 15.9572 1.08292 15.8649C1.02858 15.7726 0.999948 15.6674 1 15.5603V6.26629C1.00013 6.15934 1.02884 6.05436 1.08317 5.96223C1.1375 5.8701 1.21547 5.79416 1.309 5.74229L9.709 1.07529C9.79804 1.02591 9.89818 1 10 1C10.1018 1 10.202 1.02591 10.291 1.07529L18.691 5.74229C18.7845 5.79416 18.8625 5.8701 18.9168 5.96223C18.9712 6.05436 18.9999 6.15934 19 6.26629Z" stroke="#0D0D0D" stroke-width="1.5" stroke-linecap="round" stroke-linejoin="round"/>
<path d="M1.52832 6.20728L9.70832 10.7513C9.79748 10.8008 9.89781 10.8269 9.99982 10.8269C10.1018 10.8269 10.2022 10.8008 10.2913 10.7513L18.5003 6.19128M10.0003 19.9133V10.9133" stroke="#0D0D0D" stroke-width="1.5" stroke-linecap="round" stroke-linejoin="round"/>
<path d="M9.691 10.7423L1.891 6.4083C1.79964 6.35763 1.69663 6.3317 1.59217 6.33306C1.48771 6.33442 1.38541 6.36304 1.29541 6.41607C1.2054 6.46911 1.1308 6.54472 1.07899 6.63544C1.02718 6.72616 0.999949 6.82883 1 6.9333V15.5603C0.999948 15.6674 1.02858 15.7726 1.08292 15.8649C1.13725 15.9573 1.21532 16.0333 1.309 16.0853L9.109 20.4183C9.20036 20.469 9.30337 20.4949 9.40783 20.4935C9.51229 20.4922 9.61459 20.4636 9.70459 20.4105C9.7946 20.3575 9.8692 20.2819 9.92101 20.1912C9.97282 20.1004 10.0001 19.9978 10 19.8933V11.2663C9.99987 11.1593 9.97116 11.0544 9.91683 10.9622C9.8625 10.8701 9.78453 10.7942 9.691 10.7423Z" stroke="#0D0D0D" stroke-width="1.5" stroke-linejoin="round"/>
</svg>
